<svg xmlns="http://www.w3.org/2000/svg" width="31.398" height="28.7" viewBox="0 0 31.398 28.7"><path d="M31.4,0S10.034,11.821,14.805,21.648l-1.425,2.92-.52-1.181a5.848,5.848,0,0,0,.269-4.878,10.643,10.643,0,0,0-3.537-4.374A34.646,34.646,0,0,0,.618,9.422L0,9.189l.145.645a35.768,35.768,0,0,1,.7,6.706,12.478,12.478,0,0,0,.927,4.652,8.705,8.705,0,0,0,2.662,3.627A6.166,6.166,0,0,0,7,25.99a6.324,6.324,0,0,0,1.226.118,7.555,7.555,0,0,0,1.935-.263l.018-.005a4.874,4.874,0,0,0,1.742-1.12,11.409,11.409,0,0,1,.816,3.731l.018.249h.534s.992-5.767,6.48-12.9L21.2,18.1,28.7,3.938s-4.793,12.882-7,17.372A7.53,7.53,0,0,0,19.151,19.3a23.17,23.17,0,0,0-2.685,4.6C17.177,23.952,31.537,24.863,31.4,0ZM9.97,25.158a5.645,5.645,0,0,1-5.1-.9C2.882,22.736,1.581,19.7,1.56,16.535A37.305,37.305,0,0,0,.966,10.32a32.759,32.759,0,0,1,8.187,4.375,9.925,9.925,0,0,1,3.312,4.068,5.111,5.111,0,0,1,.008,3.747,19.711,19.711,0,0,0-4.237-5.972s-.374,2.565-.391,2.511-5.628-6.266-5.628-6.266S7.361,20.26,8.073,23.749a8.094,8.094,0,0,0,1.317-3.2A31.88,31.88,0,0,1,11.6,24.022,4.323,4.323,0,0,1,9.97,25.158Z"/></svg>