<svg xmlns="http://www.w3.org/2000/svg" width="51.637" height="58.629" viewBox="0 0 51.637 58.629"><defs><style>.a{fill:#607c1c;}.b{fill:#839e2e;}.c{fill:#b25b36;}.d{fill:#c16544;}.e{fill:#604747;}.f{fill:#7a6262;}</style></defs><g transform="translate(-132.034 -176.108)"><g transform="translate(139.132 176.108)"><path class="a" d="M155.393,159.59h.978l.489,14.862-.489,7.535h-.978Z" transform="translate(-137.651 -151.226)"/><rect class="b" width="0.978" height="22.397" transform="translate(18.721 8.364)"/><path class="a" d="M142.374,154.773l.489-1.551s-4.892-10.22-12.978-8.066-6.588,10.959-1.9,9.8,6.869-4.184,9.554-3.56S142.374,154.773,142.374,154.773Z" transform="translate(-124.142 -144.858)"/><path class="b" d="M157.605,154.773l-.489-1.551s4.892-10.22,12.979-8.066,6.588,10.959,1.9,9.8-6.869-4.184-9.554-3.56S157.605,154.773,157.605,154.773Z" transform="translate(-138.395 -144.858)"/></g><g transform="translate(132.034 195.87)"><path class="c" d="M127.217,198.414l3.718,30.028h17.189l7.016-17.084-7.016-13.786Z" transform="translate(-122.306 -189.574)"/><path class="d" d="M178.023,198.414l-3.718,30.028H157.116v-30.87Z" transform="translate(-131.298 -189.574)"/><path class="e" d="M146.012,198.131H122.836a2.642,2.642,0,0,1-2.642-2.643v-6.712a2.642,2.642,0,0,1,2.642-2.642h23.176l7.647,8.209Z" transform="translate(-120.194 -186.134)"/><path class="f" d="M3.779,0h22.04a0,0,0,0,1,0,0V12a0,0,0,0,1,0,0H3.779A3.779,3.779,0,0,1,0,8.218V3.779A3.779,3.779,0,0,1,3.779,0Z" transform="translate(51.637 11.997) rotate(180)"/></g></g></svg>